<?xml version="1.0" standalone="no"?>
<!DOCTYPE svg PUBLIC "-//W3C//DTD SVG 20010904//EN"
 "http://www.w3.org/TR/2001/REC-SVG-20010904/DTD/svg10.dtd">
<svg version="1.0" xmlns="http://www.w3.org/2000/svg"
 width="882.000000pt" height="283.000000pt" viewBox="0 0 882.000000 283.000000"
 preserveAspectRatio="xMidYMid meet">

<g transform="translate(0.000000,283.000000) scale(0.100000,-0.100000)"
fill="#1979c3" stroke="none">
<path d="M1660 2789 c-196 -11 -298 -49 -431 -160 -63 -53 -159 -181 -200
-266 -18 -38 -209 -422 -425 -855 l-393 -788 342 0 342 0 209 385 209 385 363
0 363 0 72 138 c39 75 98 188 131 250 l59 112 -356 0 c-196 0 -355 3 -353 8 2
4 34 67 71 141 l69 133 1938 -7 1937 -8 99 179 c54 99 119 217 145 264 l46 85
-36 7 c-49 9 -4032 7 -4201 -3z"/>
<path d="M4040 1365 l0 -645 150 0 150 0 0 645 0 645 -150 0 -150 0 0 -645z"/>
<path d="M2745 1986 c-132 -33 -219 -128 -260 -283 -13 -50 -14 -124 -9 -515
l7 -458 139 0 138 0 0 473 c0 446 1 475 18 490 15 14 42 17 150 17 l132 0 0
-490 0 -490 145 0 145 0 0 490 0 490 119 0 c105 0 121 -2 145 -21 l26 -20 0
-470 0 -469 150 0 151 0 -3 483 c-3 473 -3 483 -25 537 -47 114 -126 187 -251
229 -58 20 -82 21 -464 20 -284 0 -418 -4 -453 -13z"/>
<path d="M4675 1979 c-117 -38 -190 -112 -226 -228 -19 -65 -20 -88 -17 -412
l3 -344 33 -71 c41 -86 87 -134 167 -171 l60 -28 458 -3 457 -3 0 151 0 150
-392 0 c-422 0 -462 4 -478 46 -6 14 -10 149 -10 300 l0 276 29 29 29 29 411
0 411 0 0 150 0 150 -437 -1 c-407 0 -442 -2 -498 -20z"/>
<path d="M6140 1406 c0 -326 3 -614 6 -640 l7 -46 138 0 139 0 1 163 c1 89 2
167 4 172 1 6 3 42 3 81 l2 71 363 6 c389 7 422 11 517 63 185 100 236 356
109 548 -43 65 -135 131 -216 156 -62 19 -92 20 -569 20 l-504 0 0 -594z
m1083 536 c295 -119 332 -511 62 -646 -85 -42 -123 -45 -495 -46 -205 0 -361
-4 -370 -10 -12 -8 -16 -50 -20 -247 l-5 -238 -106 -3 -106 -3 -6 422 c-4 232
-7 507 -7 611 l0 189 498 -3 c494 -3 497 -3 555 -26z"/>
<path d="M6622 1723 c-157 -3 -214 -7 -217 -16 -11 -31 -11 -208 -1 -223 10
-13 57 -15 381 -12 344 3 372 4 398 22 78 53 74 170 -6 213 -35 20 -137 22
-555 16z m555 -57 c22 -19 28 -32 28 -65 0 -50 -26 -79 -81 -91 -21 -5 -186
-10 -366 -10 l-328 0 0 95 0 95 359 0 360 0 28 -24z"/>
<path d="M7610 1510 c0 -469 1 -492 21 -544 24 -64 89 -141 157 -185 93 -60
105 -61 575 -61 l427 0 0 145 0 145 -405 0 c-266 0 -412 4 -428 11 -52 24 -52
19 -55 517 l-3 462 -144 0 -145 0 0 -490z m260 18 c0 -488 0 -486 63 -532 27
-20 42 -21 428 -24 l400 -3 -3 -107 -3 -107 -420 0 -420 0 -65 31 c-79 38
-140 97 -177 172 l-28 57 -3 478 -3 477 116 0 115 0 0 -442z"/>
<path d="M5740 870 l0 -150 150 0 150 0 0 150 0 150 -150 0 -150 0 0 -150z
m260 0 l0 -121 -112 3 -113 3 -3 104 c-1 58 0 111 2 118 4 10 34 13 116 13
l110 0 0 -120z"/>
<path d="M4779 437 c-107 -30 -152 -85 -152 -186 0 -148 97 -209 318 -199 177
8 238 55 243 188 4 101 -14 135 -92 174 -52 26 -70 30 -165 33 -66 2 -123 -2
-152 -10z m273 -115 c33 -32 33 -112 0 -144 -21 -21 -31 -23 -143 -23 -120 0
-121 0 -145 28 -42 49 -26 134 30 158 11 5 69 8 128 6 97 -2 110 -4 130 -25z"/>
<path d="M5956 431 c-16 -17 -116 -336 -116 -368 0 -9 18 -13 55 -13 61 0 50
-19 95 153 13 48 25 85 28 82 3 -2 32 -55 66 -117 l61 -113 41 -3 c50 -4 56 3
128 138 31 58 56 103 56 100 1 -3 16 -57 34 -120 l32 -115 57 -3 c31 -2 57 0
57 5 0 26 -105 361 -117 376 -21 23 -68 22 -92 -2 -11 -11 -47 -69 -81 -130
-34 -61 -63 -111 -65 -111 -2 0 -34 54 -71 120 -37 67 -75 125 -85 130 -28 16
-64 12 -83 -9z"/>
<path d="M6852 435 c-12 -9 -65 -78 -118 -153 -54 -75 -113 -158 -131 -185
l-35 -47 71 0 70 0 92 130 c51 72 95 130 98 130 3 0 30 -36 59 -80 l52 -80
-87 0 -88 -1 -32 -47 -33 -47 110 -3 c60 -1 161 -1 224 0 l116 3 -120 175
c-66 96 -131 185 -145 198 -30 26 -71 29 -103 7z"/>
<path d="M7287 432 c-15 -16 -17 -45 -17 -200 l0 -182 50 0 50 0 0 115 c0 63
3 115 8 114 4 0 63 -51 132 -114 104 -95 130 -115 157 -115 57 0 63 21 63 217
l0 173 -55 0 -54 0 -3 -110 -3 -110 -129 115 c-136 121 -165 135 -199 97z"/>
<path d="M2515 398 l-36 -43 179 -5 c186 -5 212 -11 212 -51 0 -42 -34 -49
-223 -49 l-178 0 3 -97 3 -98 58 -3 57 -3 0 49 0 49 138 5 c149 6 190 17 232
63 33 36 36 130 5 165 -44 49 -88 60 -257 60 l-156 0 -37 -42z"/>
<path d="M3060 245 l0 -195 185 0 184 0 36 48 37 47 -164 5 -163 5 0 25 0 25
121 3 121 3 32 39 c17 21 31 41 31 44 0 3 -70 6 -156 6 l-155 0 3 23 c3 21 7
22 132 25 139 3 128 -1 177 65 l20 27 -220 0 -221 0 0 -195z"/>
<path d="M3593 397 l-32 -42 183 -5 c194 -5 220 -12 214 -54 -6 -38 -42 -46
-230 -46 l-178 0 0 -100 0 -100 60 0 60 0 0 55 0 55 94 0 94 0 47 -55 47 -55
74 0 c41 0 74 4 74 8 0 4 -25 32 -55 62 -30 30 -55 57 -55 60 0 3 14 11 30 18
38 17 60 59 60 114 0 54 -21 85 -74 109 -35 16 -66 19 -211 18 l-170 0 -32
-42z"/>
<path d="M4152 248 l3 -193 57 -3 57 -3 3 73 3 73 112 3 112 3 30 38 c17 22
31 41 31 45 0 3 -64 7 -142 8 l-143 3 0 25 0 25 121 3 121 3 32 39 c17 21 31
41 31 44 0 3 -97 6 -215 6 l-215 0 2 -192z"/>
<path d="M5302 398 l-33 -43 184 -5 c195 -5 221 -12 215 -54 -6 -38 -42 -46
-230 -46 l-178 0 0 -100 0 -100 60 0 60 0 0 55 0 55 93 0 93 0 44 -55 45 -54
79 -1 79 0 -24 28 c-13 15 -39 44 -58 64 -19 21 -33 39 -30 40 2 2 13 8 24 14
57 31 81 119 49 174 -35 58 -62 65 -259 68 l-180 3 -33 -43z"/>
<path d="M7904 416 c-88 -41 -126 -116 -104 -206 14 -58 55 -104 117 -132 39
-18 73 -23 174 -26 l125 -4 42 50 43 51 -160 3 c-144 3 -162 5 -188 24 -56 42
-55 106 0 148 25 18 45 21 152 25 l123 3 31 38 c17 22 31 41 31 44 0 3 -75 6
-167 6 -156 0 -172 -2 -219 -24z"/>
<path d="M8350 245 l0 -195 184 0 185 0 35 44 c20 23 36 46 36 50 0 3 -72 6
-160 6 l-160 0 0 30 0 30 119 0 120 0 30 37 c17 21 31 41 31 45 0 5 -67 8
-150 8 l-150 0 0 25 0 25 129 0 129 0 24 33 c13 17 28 38 32 45 6 9 -40 12
-213 12 l-221 0 0 -195z"/>
</g>
</svg>
